<svg width="21" height="20" viewBox="0 0 21 20" fill="none" xmlns="http://www.w3.org/2000/svg">
<path fill-rule="evenodd" clip-rule="evenodd" d="M1.64953 2.06108C2.02235 1.32586 2.81299 0.857422 3.68109 0.857422H17.4829C18.2099 0.857422 18.8921 1.18691 19.3143 1.74197L20.3323 3.08029C20.9682 3.91634 20.3309 5.07683 19.2358 5.07683C19.0836 5.07683 18.9541 5.1809 18.9308 5.32199L16.958 17.2526C16.7101 18.7516 15.3341 19.8574 13.7166 19.8574H7.78248C6.1175 19.8574 4.71664 18.6876 4.52429 17.1366L3.09824 5.6377C3.05859 5.31798 2.76981 5.07683 2.42658 5.07683C1.35599 5.07683 0.650979 4.03027 1.11076 3.12356L1.64953 2.06108ZM3.68109 2.66695C3.55757 2.66695 3.44508 2.7336 3.39203 2.83821L3.12881 3.35729C4.12526 3.61852 4.89006 4.42265 5.01482 5.42866L6.44087 16.9276C6.52007 17.5662 7.0969 18.0479 7.78248 18.0479H13.7166C14.3826 18.0479 14.9492 17.5926 15.0513 16.9753L17.024 5.0447C17.14 4.34326 17.618 3.768 18.2629 3.47573L17.7435 2.7928C17.6834 2.71383 17.5863 2.66695 17.4829 2.66695H3.68109Z" fill="#1D4D4F"/>
</svg>
