<svg width="61" height="64" viewBox="0 0 61 64" fill="none" xmlns="http://www.w3.org/2000/svg">
<path fill-rule="evenodd" clip-rule="evenodd" d="M2.92332 4.85214C4.06654 2.44816 6.49096 0.916504 9.15293 0.916504H51.4751C53.7044 0.916504 55.7963 1.99386 57.0909 3.80874L60.2124 8.1847C62.1624 10.9184 60.2082 14.7128 56.8503 14.7128C56.3835 14.7128 55.9863 15.0531 55.9148 15.5145L49.8654 54.5245C49.1053 59.4259 44.8858 63.0415 39.9259 63.0415H21.7295C16.624 63.0415 12.3283 59.2165 11.7385 54.1452L7.36567 16.5468C7.24408 15.5013 6.35856 14.7128 5.30609 14.7128C2.02319 14.7128 -0.138662 11.2909 1.27123 8.32617L2.92332 4.85214ZM9.15293 6.83317C8.77418 6.83317 8.42922 7.0511 8.26656 7.39315L7.45941 9.09042C10.515 9.94456 12.8602 12.5739 13.2427 15.8632L17.6156 53.4616C17.8584 55.5498 19.6272 57.1248 21.7295 57.1248H39.9259C41.9682 57.1248 43.7057 55.636 44.0186 53.6178L50.068 14.6078C50.4237 12.3143 51.8895 10.4333 53.867 9.47769L52.2741 7.24469C52.0899 6.98646 51.7923 6.83317 51.4751 6.83317H9.15293Z" fill="#1D4D4F"/>
<path fill-rule="evenodd" clip-rule="evenodd" d="M31.0209 36.4167C33.4717 36.4167 35.4584 34.4299 35.4584 31.9792C35.4584 29.5284 33.4717 27.5417 31.0209 27.5417C28.5702 27.5417 26.5834 29.5284 26.5834 31.9792C26.5834 34.4299 28.5702 36.4167 31.0209 36.4167ZM31.0209 42.3333C36.7394 42.3333 41.3751 37.6976 41.3751 31.9792C41.3751 26.2607 36.7394 21.625 31.0209 21.625C25.3025 21.625 20.6667 26.2607 20.6667 31.9792C20.6667 37.6976 25.3025 42.3333 31.0209 42.3333Z" fill="#1D4D4F"/>
</svg>
