<svg width="264" height="266" viewBox="0 0 264 266" fill="none" xmlns="http://www.w3.org/2000/svg">
<path opacity="0.2" d="M131.021 46.6156C135.714 49.3382 140.692 52.8421 144.482 56.5552L142.993 58.0608C135.515 57.2606 127.639 58.2593 120.55 58.3694C119.76 57.5665 118.167 56.3594 119.65 55.3509L131.021 46.6156ZM263.248 140.109C263.347 143.506 263.665 146.423 262.348 149.9C248.686 153.811 239.712 139.252 226.456 141.448L227.955 148.994C240.219 149.4 247.879 161.236 260.548 160.727C258.748 164.346 261.351 173.878 253.377 170.068C245.099 168.066 239.114 160.727 230.043 160.727C228.949 162.75 229.642 165.55 229.45 167.943C239.019 169.454 245.901 177.593 255.468 179.096C254.568 182.405 253.676 186.11 250.982 188.128C243.199 186.222 237.12 179.187 228.834 179.389L227.359 186.318C235.233 186.522 240.321 193.533 247.397 195.638C247.592 198.56 244.996 201.172 243.501 203.781C237.219 201.882 232.428 196.45 225.25 196.851C225.15 194.129 226.756 191.039 226.15 188.128C218.088 190.542 212.683 183.003 206.708 178.48C206.536 163.681 191.056 153.972 190.239 140.109C190.082 137.344 190.5 134.394 191.752 131.223C196.839 119.383 195.241 104.012 189.662 92.9737C187.967 90.0689 184.964 87.7757 182.165 86.068C186.26 94.8032 191.251 105.124 188.76 115.861C188.471 124.153 183.61 132.116 183.555 140.109C183.536 142.958 184.14 145.808 185.769 148.686C192.254 160.442 203.923 171.571 199.535 186.315C198.329 190.844 194.736 194.346 193.84 198.955C201.427 205.279 208.602 212.406 218.669 212.808C222.256 210.502 220.264 200.276 227.643 204.993L238.418 210.417C237.633 213.32 235.218 215.922 233.031 217.921C228.943 215.918 224.955 213.518 219.858 213.713C218.354 215.318 217.061 217.12 217.176 219.423C220.763 220.017 224.053 221.541 227.05 223.652C225.659 226.668 222.947 228.558 220.455 230.867L212.096 227.859C210.701 229.869 207.802 231.981 208.819 234.187C210.705 235 212.797 236.099 214.186 237.507C210.496 241.52 205.82 244.102 201.321 246.827C197.445 234.077 184.675 225.138 185.771 210.394L185.178 209.797C182.176 213.194 183.179 218.625 183.373 223.033C186.965 232.268 195.534 239.401 196.834 249.528C195.333 252.135 191.951 252.654 189.356 253.758C189.657 235.499 162.139 221.65 179.786 203.181C185.671 194.137 195.531 185.507 192.038 173.056C188.45 161.034 175.763 153.585 175.875 140.109L175.895 139.058C178.784 125.003 187.563 110.049 180.382 95.0982C178.38 89.0847 173.908 82.2512 167.826 79.7378C176.894 90.1844 180.489 107.229 175.301 121.286C172.687 126.877 169.087 133.538 168.726 140.111H168.704C168.512 143.544 169.208 146.957 171.409 150.194C178.294 161.438 190.253 173.789 183.374 188.442C175.597 200.179 162.037 212.118 169.61 227.576C175.093 236.809 183.576 246.021 181.288 257.371L172.314 260.378C178.297 239.209 148.978 226.771 161.251 205.594C168.829 194.255 182.381 183.615 174.71 168.565C170.123 159.24 160.646 153.721 160.946 142.067L161.272 140.11C164.36 123.583 176.843 107.938 168.115 90.2764C165.821 85.0612 161.237 79.7442 156.15 76.7311L155.842 77.0405C166.018 86.9755 169.114 103.322 163.628 116.462C161.068 124.172 155.45 131.851 154.308 140.113C153.764 144.008 154.222 148.045 156.459 152.298C162.939 162.626 174.304 173.583 167.212 186.936C159.744 197.965 147.276 208.697 152.256 223.039C157.741 235.588 169.196 247.542 163.011 263.102L153.751 265.206C161.127 250.043 150.067 234.996 143.589 221.845C135.707 202.977 160.522 193.943 160.92 176.692C160.826 165.558 149.065 159.236 146.58 149.001C141.489 144.679 136.214 150.719 130.128 149.598C125.636 150.506 118.736 143.374 116.054 151.105C112.861 162.44 98.3116 170.772 104.706 184.216C110.79 196.163 125.433 204.899 120.541 220.359C116.162 234.8 101.695 248.551 110.667 265.206C106.982 264.005 100.099 266.305 100.198 260.379C94.5174 240.209 118.743 228.458 111.261 208.298C107.779 195.95 91.9127 189.128 95.4057 174.276C97.988 162.051 111.618 153.504 109.707 140.112C109.551 138.991 109.277 137.843 108.885 136.647C103.798 122.196 93.4185 107.741 99.6049 90.8754C101.303 86.0581 104.696 81.9444 107.677 77.6386C97.8051 82.9557 92.8252 94.1988 93.0295 105.637C92.5993 118.075 101.728 128.73 103.027 140.112C103.538 144.706 102.79 149.409 99.6049 154.399C93.129 163.243 84.6596 172.569 88.5425 184.214C92.2345 195.961 106.791 203.076 105.894 216.73C105.795 232.881 87.1487 242.937 92.4335 260.999L83.1529 257.969C79.4681 241.918 96.4158 233.706 96.6103 218.855C99.0089 201.777 77.3671 195.441 78.6659 178.793C78.5727 166.145 89.6351 158.134 94.521 147.494C95.3591 144.905 95.6378 142.459 95.5258 140.113C94.927 128.349 84.3952 119.152 86.1431 105.926C86.731 96.1925 90.0214 87.6603 96.3056 80.3396C87.6354 83.8452 84.0537 93.8903 81.6587 102.322C77.5025 115.841 87.4239 128.001 88.4188 140.114C88.8598 145.463 87.561 150.781 82.5604 156.218C75.3773 164.737 68.0929 175.487 73.279 186.938C78.7708 199.572 96.0241 209.406 88.5407 225.164C84.458 235.101 74.6818 242.623 75.0833 254.36C72.4929 253.256 69.8057 252.155 67.6044 250.154C67.6044 235.204 88.7343 225.866 78.6668 210.11C77.775 213.219 77.5832 217.444 76.8849 220.956C73.391 230.092 65.9157 237.406 63.1183 246.851C58.4404 245.034 53.5491 241.216 49.6582 237.203L55.0478 233.883C54.449 231.872 52.8563 230.168 51.4634 228.462C47.9632 227.967 45.665 230.278 42.7798 231.184C40.2871 228.972 37.8814 226.964 35.8942 224.255C37.6833 219.126 51.6623 223.367 44.5805 214.935C39.7995 211.926 35.0006 216.224 30.8138 218.23L25.1383 211.015C30.0242 208.007 34.8975 203.783 40.9746 204.994C42.4723 207.709 42.5763 211.701 45.4616 213.118C55.7335 212.917 63.0116 205.097 70.8858 198.974C65.3976 190.754 60.9303 179.408 65.8055 169.468C69.7116 159.508 79.8894 151.119 80.351 140.108C80.455 137.602 80.0669 134.965 78.9778 132.127C73.5963 118.175 71.697 99.3202 81.9689 86.9719C76.3839 88.4821 73.0908 95.4879 71.1933 100.808C65.0185 114.431 72.8282 127.051 73.0979 140.107C73.1347 142.455 72.9456 144.809 72.38 147.179C67.0935 157.916 58.5282 167.337 57.1371 179.693C51.0528 183.599 46.0576 190.43 37.3884 188.125C37.0836 190.431 37.7819 193.945 38.5769 196.557C31.7021 196.266 27.0143 201.366 21.2259 203.775C18.1425 202.779 17.3403 198.767 16.1464 195.96C22.9217 193.657 27.8094 186.82 35.5886 186.929C36.4903 184.407 35.083 182.097 34.686 179.691C25.0092 175.368 9.67044 201.06 8.38063 178.785C18.0502 178.183 24.2294 169.149 33.8058 168.248L34.0917 161.033C23.2238 159.928 16.2324 171.173 5.36898 170.064L2.97311 160.436C15.5396 161.226 23.0266 149.892 34.9943 149.282C36.5844 147.178 36.7762 144.066 37.0827 141.159C24.0197 139.446 15.0556 154.016 1.19122 149.591C1.19122 149.591 0.713474 143.527 0.454436 140.108H0.473259C0.379145 138.771 0.289513 137.839 0.289513 137.839C12.6525 142.667 23.5151 133.73 34.0917 129.116C36.7816 128.306 40.9764 129.711 42.1828 126.703C42.078 124.395 46.2611 121.695 42.7789 120.084C27.3164 117.972 17.0445 136.743 1.18942 128.208L0 125.795C3.29847 80.4406 28.7129 36.5922 70.8858 15.0144C87.9662 5.19034 109.186 0.182674 130.586 0.00495679C156.411 -0.21065 182.507 6.60757 201.919 20.438C220.771 32.0762 238.803 51.2561 248.589 70.7266C257.949 87.7857 262.256 106.928 263.543 127.307C247.187 139.745 236.214 115.588 219.558 120.994C220.455 123.609 220.952 126.313 222.856 128.521C237.617 128.416 247.783 143.972 263.234 137.842L263.248 140.109ZM75.3674 84.2512C64.9961 77.4248 51.847 83.8524 42.181 87.57C41.2838 78.4334 37.5972 70.1095 29.9103 64.0888C29.1646 63.7153 28.1338 62.9296 27.2052 62.8718C26.6495 62.8366 26.1207 63.0622 25.7102 63.7776C29.1942 85.3499 15.2608 100.403 5.38691 116.767C8.67463 119.472 13.9567 119.068 17.9444 118.273C28.4117 114.06 38.3824 106.727 50.8458 109.241C54.5315 102.919 60.7242 96.7951 65.8019 91.7775C68.904 89.0757 73.1661 87.3599 75.3674 84.2512ZM107.081 97.7992C106.882 99.0982 107.181 101.414 109.171 100.519C112.266 96.2042 117.747 99.6178 121.136 99.9219V98.7076C119.277 95.7694 115.452 94.2935 111.568 94.4406C110.672 94.4722 109.761 94.6039 108.885 94.8086C107.585 95.0991 106.681 96.2962 107.081 97.7992ZM155.838 84.8709C153.054 78.6472 146.672 76.1285 140.881 74.6237C138.042 74.2719 135.096 74.0338 132.174 74.0058C131.626 74.0004 131.079 73.9932 130.534 74.0058C122.361 74.1718 114.551 76.2836 109.78 83.0549C109.095 84.9665 106.084 87.6512 108.88 89.3644C115.162 88.9602 122.331 88.1672 126.519 93.5935C126.519 98.4153 129.612 104.83 124.43 107.139C120.135 103.137 115.05 108.842 110.377 105.63C108.18 104.324 106.79 105.849 105.89 107.755C104.591 120.196 111.064 133.926 122.628 140.848C127.315 142.55 133.615 144.168 138.506 141.754C150.271 136.24 155.145 123.603 157.335 111.961C157.041 109.745 157.146 105.427 154.058 105.323C150.57 107.543 145.483 106.231 141.787 105.323C139.602 106.033 139.501 109.251 137.014 109.861L135.498 108.644C134.2 103.132 133.4 95.3021 138.49 91.4889C144.178 89.1803 150.859 88.1718 156.741 89.9832C157.839 88.0779 156.144 86.5777 155.838 84.8709ZM149.835 94.7663C149.44 94.7762 149.055 94.796 148.666 94.8086C146.577 96.2114 140.488 95.2029 142.686 99.9219C146.477 96.9034 151.762 99.0188 155.551 100.519C156.952 99.819 156.648 98.4135 156.74 97.202C155.524 94.9241 152.617 94.7103 149.835 94.7663ZM193.248 52.336C185.867 51.9418 179.687 56.1583 172.905 58.0662C172.315 52.2584 176.699 46.1249 177.699 40.2945C166.734 41.0045 158.05 47.6468 148.979 52.953C146.88 47.8479 144.774 42.7167 142.689 37.5927L154.655 26.1493L154.961 24.6418L138.799 23.7361C136.015 18.8268 134.918 12.9134 131.628 8.39737C128.935 13.5151 127.127 18.9314 124.437 24.0446L108.294 24.9531V26.1493L120.546 37.2832C119.048 43.0063 117.656 49.2246 113.97 53.5502C106.792 49.2228 99.7152 44.5128 91.8446 41.5078C89.9506 40.8926 87.2509 39.8922 85.556 41.1993C88.0451 46.7203 91.5309 52.6589 90.9447 58.6851C87.6525 58.0753 85.0648 55.9508 81.9716 55.0577C78.2724 54.0419 73.8831 52.0572 70.2943 53.2643C76.2781 61.6892 81.1622 70.5065 82.8517 80.6454C102.703 71.0026 125.853 65.6991 149.883 69.82C161.147 71.6242 171.505 76.2421 181.577 80.0464C181.971 69.4149 188.651 60.8718 193.248 52.336ZM227.337 110.147C237.499 112.855 247.694 123.999 258.455 116.768C249.083 101.115 235.134 86.6607 239.013 66.1916C239.419 64.7942 238.522 63.3797 237.231 63.1813C231.151 65.6819 226.443 71.7108 224.037 77.6368C223.048 81.1415 222.461 84.8673 221.068 88.1709C213.784 84.3558 206.012 80.6598 197.138 81.5529C193.939 81.9544 189.351 82.1655 188.761 85.4717C198.831 90.888 207.112 99.9273 213.283 109.553C217.58 108.847 222.85 109.45 227.337 110.147ZM120.848 124.294L121.135 126.108C125.031 128.72 126.229 133.148 131.623 132.745C136.407 133.031 139.996 128.521 142.379 124.911C135.906 124.011 128.029 125.403 120.848 124.294ZM126.235 116.17C126.429 116.974 125.741 118.178 126.828 118.584C130.019 117.887 135.799 120.293 137.581 116.479C136.337 115.077 134.306 114.44 132.175 114.44C130.044 114.44 127.833 115.065 126.235 116.17Z" fill="#1D4D4F"/>
<path opacity="0.2" d="M124.894 117.521C127.719 118.194 128.418 119.203 130.651 119.484C133.024 119.442 132.682 118.957 136.822 117.519C137.094 117.422 137.467 116.819 137.004 116.356C134.433 113.787 132.657 115.622 131.045 115.671C128.907 115.695 126.902 113.829 124.814 116.254C124.458 116.746 124.272 117.23 124.894 117.521Z" fill="#1D4D4F"/>
</svg>
